<?xml version="1.0" encoding="utf-8"?>
<!-- Generator: Adobe Illustrator 27.0.0, SVG Export Plug-In . SVG Version: 6.00 Build 0)  -->
<svg version="1.1" id="Layer_1" xmlns="http://www.w3.org/2000/svg" xmlns:xlink="http://www.w3.org/1999/xlink" x="0px" y="0px"
	 viewBox="0 0 80 80" style="enable-background:new 0 0 80 80;" xml:space="preserve">
<style type="text/css">
	.st0{fill:#723416;}
	.st1{fill:#AF2C24;}
	.st2{fill:#F3971F;}
	.st3{fill:#B55026;}
	.st4{fill:#D8AF3C;}
</style>
<rect class="st0" width="80" height="80"/>
<path class="st1" d="M27.8,31.2l0.5-0.4l-4.2-5.2c0,0-0.3-0.5,0.4-0.9l5.9-2.8l-2.2-1.6c0,0-0.3-0.1,0-0.7c0.3-0.7,2.2-8.4,2.2-8.4
	l-1.8,0.3c0,0-0.4-0.1-0.5-0.5s-1.3-4-1.3-4l-2.7,3c0,0-0.3,0.4-0.8,0C22.7,9.6,21.7,9,21.7,9l-0.6,4.6c0,0-0.4,0.9-0.9,0.1
	c-0.5-0.7-3.3-7.2-3.3-7.2l-1.1,2.4c0,0-0.2,0.5-0.7,0.3c-0.5-0.2-4.8-2.4-4.8-2.4L27.6,31L27.8,31.2z"/>
<path class="st1" d="M27.8,31.2l-0.6,0.4L23.6,26c0,0-0.4-0.4-1,0.1l-4.6,4.7l-0.8-2.6c0,0,0-0.3-0.7-0.2c-0.7,0-8.7-0.5-8.7-0.5
	l0.9-1.6c0,0,0.1-0.4-0.3-0.6C8,25,5,22.6,5,22.6L8.7,21c0,0,0.4-0.2,0.3-0.8c-0.1-0.6-0.4-1.8-0.4-1.8l4.5,0.9c0,0,1-0.1,0.4-0.8
	S7.8,13,7.8,13l2.7-0.3c0,0,0.6-0.1,0.5-0.6c0-0.5-0.8-5.3-0.8-5.3L27.6,31L27.8,31.2z"/>
<path class="st2" d="M53.1,30.3l0.5,0.4l3.4-5.1c0,0,0.3-0.4,0.9,0.1L62,30l0.8-2.4c0,0,0-0.3,0.6-0.2s8-0.4,8-0.4l-0.8-1.5
	c0,0-0.1-0.4,0.3-0.6c0.4-0.2,3.2-2.3,3.2-2.3l-3.4-1.5c0,0-0.4-0.1-0.3-0.7c0.1-0.6,0.4-1.6,0.4-1.6l-4.2,0.7c0,0-0.9-0.1-0.4-0.8
	s5.4-4.9,5.4-4.9l-2.4-0.3c0,0-0.5-0.1-0.5-0.6c0-0.5,0.8-4.9,0.8-4.9L53.2,30.1L53.1,30.3z"/>
<path class="st2" d="M53.1,30.3l-0.5-0.4l3.9-4.7c0,0,0.3-0.4-0.3-0.9l-5.3-2.7l2-1.4c0,0,0.3-0.1,0-0.7c-0.2-0.6-2-7.8-2-7.8
	l1.7,0.3c0,0,0.4,0,0.5-0.5c0.1-0.4,1.3-3.7,1.3-3.7l2.5,2.8c0,0,0.3,0.3,0.8,0C58.1,10.5,59,10,59,10l0.5,4.2c0,0,0.4,0.8,0.9,0.1
	s3.2-6.6,3.2-6.6l1,2.3c0,0,0.2,0.5,0.7,0.3s4.4-2.2,4.4-2.2L53.2,30.1L53.1,30.3z"/>
<path class="st3" d="M10.5,73.1l0.5,0.4l3.5-5.2c0,0,0.3-0.4,0.9,0.1l4.2,4.5l0.8-2.4c0,0,0-0.3,0.7-0.2c0.7,0,8.2-0.4,8.2-0.4
	l-0.8-1.5c0,0-0.1-0.4,0.3-0.6s3.3-2.3,3.3-2.3l-3.5-1.6c0,0-0.4-0.2-0.3-0.7c0.1-0.6,0.4-1.7,0.4-1.7L24.5,62c0,0-0.9-0.1-0.4-0.8
	c0.5-0.7,5.6-5.1,5.6-5.1l-2.5-0.3c0,0-0.5-0.1-0.5-0.6c0-0.5,0.8-5,0.8-5L10.7,72.9L10.5,73.1z"/>
<path class="st3" d="M10.5,73.1L10,72.7l4-4.8c0,0,0.3-0.4-0.3-0.9l-5.5-2.8l2.1-1.4c0,0,0.3-0.1,0-0.7s-2-8-2-8l1.7,0.3
	c0,0,0.4,0,0.5-0.5s1.3-3.8,1.3-3.8l2.5,2.9c0,0,0.3,0.3,0.8,0s1.5-0.8,1.5-0.8l0.5,4.3c0,0,0.4,0.8,0.9,0.1s3.3-6.8,3.3-6.8l1,2.3
	c0,0,0.2,0.5,0.7,0.3c0.5-0.2,4.6-2.2,4.6-2.2L10.7,72.9L10.5,73.1z"/>
<path class="st4" d="M69.9,73.4l0.5-0.4l-4.3-4.8c0,0-0.3-0.4,0.3-0.9l5.6-3.1l-2.2-1.4c0,0-0.3,0-0.1-0.7c0.2-0.7,1.7-8.3,1.7-8.3
	l-1.8,0.4c0,0-0.4,0-0.5-0.5c-0.1-0.5-1.5-3.9-1.5-3.9l-2.5,3.1c0,0-0.3,0.4-0.8,0.1c-0.6-0.3-1.6-0.8-1.6-0.8l-0.3,4.5
	c0,0-0.3,0.9-0.9,0.2c-0.6-0.7-3.6-6.9-3.6-6.9l-0.9,2.4c0,0-0.2,0.5-0.7,0.4c-0.5-0.1-4.8-2.1-4.8-2.1l18.3,22.7L69.9,73.4z"/>
<path class="st4" d="M69.9,73.4l-0.5,0.4l-3.8-5.3c0,0-0.4-0.4-1,0.1l-4.2,4.8L59.5,71c0,0,0-0.3-0.7-0.2c-0.7,0.1-8.5,0-8.5,0
	l0.8-1.6c0,0,0.1-0.4-0.4-0.6c-0.4-0.2-3.5-2.3-3.5-2.3l3.5-1.8c0,0,0.4-0.2,0.2-0.8c-0.2-0.6-0.5-1.7-0.5-1.7l4.5,0.6
	c0,0,0.9-0.2,0.4-0.8c-0.6-0.7-5.9-5-5.9-5l2.6-0.4c0,0,0.5-0.1,0.5-0.6c0-0.5-1.1-5.2-1.1-5.2l18.3,22.7L69.9,73.4z"/>
</svg>
