<?xml version="1.0" encoding="UTF-8"?>
<svg id="Layer_1" data-name="Layer 1" xmlns="http://www.w3.org/2000/svg" viewBox="0 0 192.33 53.59">
  <defs>
    <style>
      .cls-1 {
        font-size: 12px;
      }

      .cls-1, .cls-2, .cls-3 {
        fill: #231f20;
      }

      .cls-1, .cls-3 {
        font-family: Calibri, Calibri;
      }

      .cls-4, .cls-5 {
        fill: #fff;
      }

      .cls-5 {
        stroke: #231f20;
        stroke-miterlimit: 10;
      }

      .cls-6 {
        letter-spacing: -.02em;
      }

      .cls-7 {
        letter-spacing: 0em;
      }

      .cls-8 {
        fill: #ed1c24;
      }

      .cls-9 {
        letter-spacing: -.02em;
      }

      .cls-3 {
        font-size: 28px;
      }
    </style>
  </defs>
  <ellipse class="cls-5" cx="24.16" cy="47.81" rx="23.66" ry="5.28"/>
  <path class="cls-2" d="M42.59,46.81s-.95,3.5-17.48,3.5-19.37-3.5-19.37-3.5V4.67c13.09,5.17,23.79,5.09,36.85,0V46.81Z"/>
  <path class="cls-4" d="M41.39,46.15s-.89,3.29-16.34,3.29-18.1-3.29-18.1-3.29V6.56c14.15,3.62,21.3,3.62,34.45,0V46.15Z"/>
  <ellipse class="cls-2" cx="24.16" cy="4.68" rx="18.42" ry="4.68"/>
  <path class="cls-4" d="M24.16,.93C14.65,.93,6.94,2.61,6.94,4.67c0,.68,.85,1.31,2.31,1.86,1.27-1.69,7.45-2.97,14.91-2.97s13.64,1.28,14.91,2.97c1.46-.55,2.31-1.18,2.31-1.86,0-2.06-7.71-3.73-17.22-3.73Z"/>
  <path class="cls-2" d="M41.83,11.76c13.1,1.59,13.68,9.71,13.68,9.71,0,0,1.59,16.57-13.41,17.99v-2.74s10.15,.81,10.23-14.79c0,0-.88-7-10.5-7.61v-2.56Z"/>
  <path class="cls-8" d="M20.26,31.5l.33,.18,1.55-3.35s.16-.26,.56-.05l2.86,2.22,.23-1.48s-.04-.15,.36-.19,4.76-.96,4.76-.96l-.62-.83s-.08-.23,.14-.37,1.69-1.66,1.69-1.66l-2.16-.62s-.25-.05-.22-.41,.08-1,.08-1l-2.43,.83s-.54,.02-.3-.43,2.77-3.45,2.77-3.45l-1.49,.05s-.31,0-.35-.29,.04-2.99,.04-2.99l-7.77,14.68-.05,.1Z"/>
  <path class="cls-8" d="M20.26,31.5l-.33-.18,1.9-3.17s.12-.28-.28-.49l-3.46-1.12,1.1-1.03s.15-.05-.05-.41-1.9-4.48-1.9-4.48l1.03,.05s.23-.06,.23-.33,.42-2.33,.42-2.33l1.73,1.44s.18,.18,.46-.05,.78-.63,.78-.63l.68,2.48s.29,.46,.53,0,1.29-4.23,1.29-4.23l.8,1.26s.17,.26,.44,.13,2.46-1.71,2.46-1.71l-7.77,14.68-.05,.1Z"/>
  <text class="cls-1" transform="translate(12.91 43.92)"><tspan x="0" y="0">M</tspan><tspan class="cls-9" x="10.26" y="0">.</tspan><tspan x="13.07" y="0">C.</tspan></text>
  <text class="cls-3" transform="translate(61 37.44)"><tspan x="0" y="0">Maple C</tspan><tspan class="cls-7" x="93.68" y="0">a</tspan><tspan class="cls-6" x="106.93" y="0">f</tspan><tspan x="114.78" y="0">e</tspan></text>
</svg>